<svg width="15" height="14" viewBox="0 0 15 14" fill="none" xmlns="http://www.w3.org/2000/svg">
<path fill-rule="evenodd" clip-rule="evenodd" d="M14.2489 4.34902V4.3518C14.5968 5.18957 14.7738 6.07981 14.7738 6.9987C14.7738 10.8344 11.6513 13.9569 7.81559 13.9569C3.97987 13.9569 0.857422 10.8344 0.857422 6.9987C0.857422 3.16296 3.97987 0.0405273 7.81559 0.0405273C8.5404 0.0405273 9.25656 0.153453 9.9384 0.374121C9.94122 0.374121 9.94122 0.376901 9.94122 0.376901H9.94993C9.95968 0.38023 9.96757 0.386167 9.97574 0.392276L9.98343 0.397939L9.98672 0.400221L9.99043 0.402589L9.99242 0.403756L9.99647 0.405935C10.0112 0.414686 10.0287 0.417466 10.043 0.428997C10.043 0.428997 10.043 0.429941 10.0436 0.43073C10.0439 0.431296 10.0446 0.431777 10.0458 0.431777C10.0614 0.447718 10.0727 0.463676 10.0854 0.481745L10.0891 0.487047C10.0908 0.489295 10.0926 0.491423 10.0945 0.493516L10.0985 0.498012C10.1022 0.50201 10.1058 0.506008 10.109 0.510452C10.1114 0.51385 10.1136 0.517522 10.1153 0.52164C10.12 0.529791 10.123 0.538679 10.1253 0.547962L10.1265 0.553145L10.1278 0.559476L10.1297 0.570939L10.1324 0.578266L10.1353 0.585833L10.1355 0.586399C10.1403 0.598926 10.1452 0.611881 10.1472 0.626209C10.1472 0.630945 10.1466 0.635767 10.146 0.64076V0.643059C10.1452 0.649563 10.1444 0.656444 10.1444 0.663977C10.1444 0.690213 10.1416 0.713275 10.1357 0.739529V0.742309C10.1323 0.752072 10.1264 0.760961 10.1207 0.769403C10.1162 0.776095 10.112 0.782496 10.1094 0.788828C10.1007 0.80633 10.0947 0.823815 10.0832 0.838126C9.71176 1.29062 9.50901 1.85602 9.50901 2.43573C9.50901 3.82417 10.6394 4.95499 12.0283 4.95499C12.6835 4.95499 13.3038 4.7029 13.7765 4.24485C13.7804 4.24161 13.7844 4.23884 13.7883 4.23636C13.7939 4.23279 13.7995 4.22978 13.8052 4.2268C13.8101 4.22419 13.815 4.22158 13.8199 4.21861C13.8374 4.20708 13.8489 4.19555 13.8664 4.1868H13.8723C13.8927 4.17844 13.9161 4.17527 13.9392 4.17249C13.9535 4.17249 13.9682 4.16374 13.9825 4.16652C14 4.16652 14.0144 4.17249 14.0318 4.17527C14.0521 4.17805 14.0724 4.18083 14.0899 4.1868C14.0974 4.19045 14.1038 4.19548 14.1105 4.20097L14.1142 4.20403L14.1217 4.20986C14.1448 4.22139 14.165 4.23292 14.1853 4.25043C14.1853 4.25209 14.1853 4.25276 14.1859 4.25303C14.1863 4.25321 14.187 4.25321 14.1881 4.25321C14.1996 4.26752 14.2083 4.285 14.2171 4.30251C14.2258 4.31682 14.2402 4.32557 14.2461 4.34305C14.2461 4.3448 14.2461 4.34559 14.2466 4.34642L14.2474 4.34751L14.2489 4.34902ZM2.88682 7.86826C2.88682 8.50921 3.40613 9.02809 4.04665 9.02809C4.68717 9.02809 5.20648 8.50921 5.20648 7.86826C5.20648 7.22733 4.68717 6.70845 4.04665 6.70845C3.40572 6.70845 2.88682 7.22772 2.88682 7.86826ZM5.78578 2.93951C5.30745 2.93951 4.91622 3.33115 4.91622 3.80947C4.91622 4.2878 5.30786 4.67944 5.78578 4.67905C6.26453 4.67905 6.65576 4.2878 6.65576 3.80947C6.65576 3.33074 6.26411 2.93951 5.78578 2.93951ZM7.52574 10.7676C7.52574 11.2464 7.91697 11.6376 8.3953 11.6376C8.87363 11.6376 9.26528 11.246 9.26528 10.7676C9.26528 10.2893 8.87363 9.89807 8.3953 9.89807C7.91697 9.89807 7.52574 10.2893 7.52574 10.7676ZM7.81559 6.85356C7.81559 7.49451 8.3349 8.01339 8.97542 8.01339C9.61594 8.01339 10.1348 7.49451 10.1353 6.85356C10.1353 6.21263 9.61594 5.69375 8.97542 5.69375C8.33449 5.69375 7.81559 6.21302 7.81559 6.85356Z" fill="white"/>
</svg>
